<?xml version="1.0" standalone="no"?>
<!DOCTYPE svg PUBLIC "-//W3C//DTD SVG 20010904//EN"
 "http://www.w3.org/TR/2001/REC-SVG-20010904/DTD/svg10.dtd">
<svg version="1.0" xmlns="http://www.w3.org/2000/svg"
 width="192.000000pt" height="192.000000pt" viewBox="0 0 192.000000 192.000000"
 preserveAspectRatio="xMidYMid meet">
<metadata>
Created by potrace 1.14, written by Peter Selinger 2001-2017
</metadata>
<g transform="translate(0.000000,192.000000) scale(0.100000,-0.100000)"
fill="#000000" stroke="none">
<path d="M817 1764 c-93 -18 -128 -29 -223 -76 -362 -176 -538 -608 -405 -994
117 -341 437 -560 801 -548 167 5 349 69 464 164 216 176 326 408 321 671 -1
48 -6 100 -10 115 -4 16 -9 40 -12 54 -32 175 -179 384 -348 492 -65 42 -174
94 -217 104 -10 2 -28 6 -40 9 -96 22 -239 26 -331 9z"/>
</g>
</svg>
